<svg width="144" height="120" viewBox="0 0 144 120" fill="none" xmlns="http://www.w3.org/2000/svg">
<path d="M121.848 119H22.865C22.589 119 22.365 119.224 22.365 119.5C22.365 119.776 22.589 120 22.865 120H121.848C122.124 120 122.348 119.776 122.348 119.5C122.348 119.224 122.124 119 121.848 119Z" fill="#11305D"/>
<path d="M143.17 119H127.867C127.591 119 127.367 119.224 127.367 119.5C127.367 119.776 127.591 120 127.867 120H143.17C143.446 120 143.67 119.776 143.67 119.5C143.67 119.224 143.447 119 143.17 119Z" fill="#11305D"/>
<path d="M141.754 0H80.3611C79.3041 0 78.4451 0.861002 78.4451 1.92V54.515L69.9151 64.552C69.7891 64.7 69.7601 64.909 69.8421 65.086C69.9241 65.263 70.1011 65.376 70.2961 65.376H141.754C142.811 65.376 143.67 64.515 143.67 63.456V1.92C143.67 0.861002 142.811 0 141.754 0ZM142.67 63.455C142.67 63.962 142.259 64.375 141.754 64.375H71.3781L79.3271 55.022C79.4041 54.932 79.4461 54.817 79.4461 54.698V1.92C79.4461 1.413 79.8571 1 80.3621 1H141.755C142.26 1 142.671 1.413 142.671 1.92V63.455H142.67Z" fill="#11305D"/>
<path d="M126.879 18.223H98.543C98.267 18.223 98.043 18.447 98.043 18.723V47.124C98.043 47.4 98.267 47.624 98.543 47.624H126.879C127.155 47.624 127.379 47.4 127.379 47.124V18.723C127.379 18.447 127.156 18.223 126.879 18.223ZM126.379 46.624H99.043V19.223H126.379V46.624Z" fill="#11305D"/>
<path d="M112.393 37.538C112.487 37.632 112.614 37.685 112.747 37.685C112.76 37.685 112.772 37.685 112.785 37.684C112.931 37.673 113.064 37.599 113.15 37.48L122.742 24.352C122.905 24.129 122.856 23.816 122.634 23.653C122.412 23.491 122.099 23.538 121.936 23.762L112.689 36.418L108.106 31.823C107.909 31.627 107.593 31.628 107.398 31.822C107.203 32.017 107.203 32.334 107.397 32.529L112.393 37.538Z" fill="#11305D"/>
<path d="M54.162 109.067H37.613C37.337 109.067 37.113 109.291 37.113 109.567C37.113 109.843 37.337 110.067 37.613 110.067H54.162C54.438 110.067 54.662 109.843 54.662 109.567C54.662 109.291 54.438 109.067 54.162 109.067Z" fill="#11305D"/>
<path d="M39.319 75.178C49.753 75.178 58.242 66.708 58.242 56.297V44.769C58.242 34.357 49.753 25.886 39.319 25.886C28.884 25.886 20.394 34.357 20.394 44.769V56.297C20.394 66.708 28.884 75.178 39.319 75.178ZM21.394 44.769C21.394 34.908 29.435 26.886 39.319 26.886C49.202 26.886 57.242 34.908 57.242 44.769V56.297C57.242 66.157 49.202 74.178 39.319 74.178C29.435 74.178 21.394 66.157 21.394 56.297V44.769Z" fill="#11305D"/>
<path d="M24.044 85.852V103.133C24.044 104.862 25.453 106.268 27.186 106.268H51.453C53.185 106.268 54.595 104.862 54.595 103.133V85.852H59.713C60.297 85.852 60.873 85.885 61.442 85.94V115.264C61.442 115.54 61.666 115.764 61.942 115.764C62.218 115.764 62.442 115.54 62.442 115.264V86.081C71.031 87.4 77.636 94.802 77.636 103.734V115.263C77.636 115.539 77.86 115.763 78.136 115.763C78.412 115.763 78.636 115.539 78.636 115.263V103.734C78.636 93.322 70.147 84.851 59.713 84.851H54.095C53.819 84.851 53.595 85.075 53.595 85.351V103.132C53.595 104.309 52.634 105.267 51.453 105.267H27.185C26.004 105.267 25.043 104.309 25.043 103.132V85.351C25.043 85.075 24.819 84.851 24.543 84.851H18.923C8.489 84.851 0 93.322 0 103.734V115.263C0 115.539 0.224 115.763 0.5 115.763C0.776 115.763 1 115.539 1 115.263V103.734C1 94.801 7.605 87.399 16.194 86.081V115.264C16.194 115.54 16.418 115.764 16.694 115.764C16.97 115.764 17.194 115.54 17.194 115.264V85.94C17.763 85.885 18.339 85.852 18.923 85.852H24.044Z" fill="#11305D"/>
</svg>
