<?xml version="1.0" encoding="utf-8"?>
<!-- Generator: Adobe Illustrator 15.0.2, SVG Export Plug-In . SVG Version: 6.00 Build 0)  -->
<!DOCTYPE svg PUBLIC "-//W3C//DTD SVG 1.1//EN" "http://www.w3.org/Graphics/SVG/1.1/DTD/svg11.dtd">
<svg version="1.1" id="Layer_2" xmlns="http://www.w3.org/2000/svg" xmlns:xlink="http://www.w3.org/1999/xlink" x="0px" y="0px"
	 width="200px" height="200px" viewBox="0 0 200 200" enable-background="new 0 0 200 200" xml:space="preserve">
<g>
	<g>
		<path d="M144.67,154.113H45.686c-0.276,0-0.5,0.225-0.5,0.5s0.224,0.5,0.5,0.5h98.984c0.275,0,0.5-0.225,0.5-0.5
			S144.945,154.113,144.67,154.113z" fill="#11305D"/>
		<path d="M165.992,154.113h-15.303c-0.277,0-0.5,0.225-0.5,0.5s0.223,0.5,0.5,0.5h15.303c0.275,0,0.5-0.225,0.5-0.5
			S166.268,154.113,165.992,154.113z" fill="#11305D"/>
		<path d="M164.576,35.113h-61.393c-1.059,0-1.918,0.861-1.918,1.92v52.594l-8.53,10.037c-0.126,0.149-0.154,0.357-0.073,0.534
			c0.082,0.177,0.26,0.29,0.454,0.29h71.459c1.057,0,1.916-0.861,1.916-1.92V37.033C166.492,35.974,165.633,35.113,164.576,35.113z
			 M165.492,98.568c0,0.507-0.412,0.92-0.916,0.92H94.199l7.95-9.354c0.074-0.092,0.117-0.207,0.117-0.324V37.033
			c0-0.507,0.412-0.92,0.918-0.92h61.395c0.504,0,0.916,0.413,0.916,0.92v61.535H165.492z" fill="#11305D"/>
		<path d="M149.701,53.335h-28.338c-0.277,0-0.5,0.225-0.5,0.5v28.401c0,0.276,0.223,0.5,0.5,0.5h28.338c0.275,0,0.5-0.224,0.5-0.5
			V53.835C150.201,53.558,149.977,53.335,149.701,53.335z" fill="#11305D" />
		<path d="M76.983,144.18H60.434c-0.276,0-0.5,0.223-0.5,0.5c0,0.275,0.224,0.5,0.5,0.5h16.549c0.275,0,0.5-0.225,0.5-0.5
			C77.483,144.402,77.26,144.18,76.983,144.18z" fill="#11305D" />
		<path d="M62.139,110.291c10.435,0,18.924-8.471,18.924-18.881V79.882c0-10.412-8.489-18.884-18.924-18.884
			S43.215,69.47,43.215,79.882V91.41C43.215,101.82,51.705,110.291,62.139,110.291z M44.215,79.882
			c0-9.861,8.041-17.884,17.926-17.884c9.883,0,17.923,8.022,17.923,17.884V91.41c0,9.86-8.04,17.881-17.923,17.881
			c-9.885,0-17.926-8.021-17.926-17.881V79.882z" fill="#11305D" />
		<path d="M46.865,120.965v17.281c0,1.729,1.409,3.135,3.142,3.135h24.268c1.732,0,3.142-1.406,3.142-3.135v-17.281h5.118
			c0.584,0,1.16,0.033,1.729,0.088v29.324c0,0.275,0.225,0.5,0.5,0.5c0.276,0,0.5-0.225,0.5-0.5v-29.184
			c8.59,1.318,15.195,8.721,15.195,17.654v11.527c0,0.275,0.222,0.5,0.5,0.5c0.275,0,0.5-0.225,0.5-0.5v-11.527
			c0-10.412-8.49-18.883-18.924-18.883h-5.618c-0.275,0-0.5,0.223-0.5,0.5v17.779c0,1.178-0.961,2.137-2.142,2.137H50.006
			c-1.181,0-2.142-0.959-2.142-2.137v-17.779c0-0.277-0.224-0.5-0.5-0.5h-5.62c-10.436,0-18.923,8.471-18.923,18.883v11.527
			c0,0.275,0.224,0.5,0.5,0.5s0.5-0.225,0.5-0.5v-11.527c0-8.934,6.604-16.336,15.194-17.654v29.184c0,0.275,0.225,0.5,0.5,0.5
			c0.277,0,0.5-0.225,0.5-0.5v-29.324c0.57-0.055,1.146-0.088,1.729-0.088H46.865L46.865,120.965z" fill="#11305D" />
	</g>
	<path fill="#FFFFFF" d="M135.568,72.798c-0.133,0-0.26-0.052-0.354-0.146l-4.998-5.01c-0.195-0.195-0.195-0.512,0-0.707
		c0.195-0.194,0.512-0.195,0.707,0.001l4.586,4.596l9.244-12.657c0.164-0.223,0.477-0.27,0.699-0.109
		c0.223,0.164,0.27,0.477,0.105,0.699l-9.59,13.129c-0.086,0.119-0.219,0.192-0.365,0.205
		C135.594,72.798,135.58,72.798,135.568,72.798z" />
</g>
</svg>
