<svg width="145" height="121" viewBox="0 0 145 121" fill="none" xmlns="http://www.w3.org/2000/svg">
<path d="M122.348 119H23.365C22.813 119 22.365 119.447 22.365 120C22.365 120.553 22.813 121 23.365 121H122.348C122.901 121 123.348 120.553 123.348 120C123.348 119.447 122.901 119 122.348 119Z" fill="#11305D"/>
<path d="M143.67 119H128.367C127.814 119 127.367 119.447 127.367 120C127.367 120.553 127.814 121 128.367 121H143.67C144.223 121 144.67 120.553 144.67 120C144.67 119.447 144.223 119 143.67 119Z" fill="#11305D"/>
<path d="M142.254 0H80.861C79.529 0 78.445 1.085 78.445 2.42V54.831L70.034 64.728C69.782 65.025 69.725 65.441 69.888 65.795C70.052 66.149 70.406 66.375 70.796 66.375H142.254C143.586 66.375 144.67 65.29 144.67 63.955V2.42C144.67 1.085 143.586 0 142.254 0ZM142.67 63.955C142.67 64.186 142.483 64.375 142.254 64.375H72.959L80.208 55.846C80.362 55.665 80.446 55.436 80.446 55.199V2.42C80.446 2.189 80.633 2 80.862 2H142.255C142.484 2 142.671 2.188 142.671 2.42V63.955H142.67Z" fill="#11305D"/>
<path d="M127.379 18.223H99.043C98.49 18.223 98.043 18.671 98.043 19.223V47.624C98.043 48.176 98.49 48.624 99.043 48.624H127.379C127.932 48.624 128.379 48.176 128.379 47.624V19.223C128.379 18.671 127.932 18.223 127.379 18.223Z" fill="#11305D"/>
<path d="M54.662 109.067H38.113C37.561 109.067 37.113 109.514 37.113 110.067C37.113 110.62 37.561 111.067 38.113 111.067H54.662C55.214 111.067 55.662 110.62 55.662 110.067C55.662 109.514 55.214 109.067 54.662 109.067Z" fill="#11305D"/>
<path d="M39.819 76.178C50.529 76.178 59.242 67.484 59.242 56.797V45.269C59.242 34.581 50.529 25.886 39.819 25.886C29.108 25.886 20.394 34.581 20.394 45.269V56.797C20.394 67.484 29.108 76.178 39.819 76.178ZM22.394 45.269C22.394 35.684 30.211 27.886 39.819 27.886C49.426 27.886 57.242 35.684 57.242 45.269V56.797C57.242 66.381 49.426 74.178 39.819 74.178C30.211 74.178 22.394 66.381 22.394 56.797V45.269Z" fill="#11305D"/>
<path d="M24.044 86.852V103.633C24.044 105.637 25.678 107.268 27.686 107.268H51.953C53.961 107.268 55.595 105.637 55.595 103.633V86.852H60.213C60.628 86.852 61.035 86.885 61.442 86.914V115.764C61.442 116.317 61.89 116.764 62.442 116.764C62.994 116.764 63.442 116.317 63.442 115.764V87.163C71.51 88.68 77.636 95.751 77.636 104.234V115.763C77.636 116.316 78.084 116.763 78.636 116.763C79.188 116.763 79.636 116.316 79.636 115.763V104.234C79.636 93.546 70.922 84.851 60.212 84.851H54.594C54.042 84.851 53.594 85.298 53.594 85.851V103.632C53.594 104.533 52.858 105.267 51.952 105.267H27.685C26.78 105.267 26.043 104.534 26.043 103.632V85.851C26.043 85.298 25.595 84.851 25.043 84.851H19.423C8.713 84.851 0 93.546 0 104.234V115.763C0 116.316 0.448 116.763 1 116.763C1.552 116.763 2 116.316 2 115.763V104.234C2 95.751 8.126 88.678 16.194 87.163V115.764C16.194 116.317 16.642 116.764 17.194 116.764C17.746 116.764 18.194 116.317 18.194 115.764V86.914C18.602 86.885 19.008 86.852 19.423 86.852H24.044Z" fill="#11305D"/>
<path d="M112.538 38.391C112.726 38.58 112.981 38.685 113.246 38.685C113.271 38.685 113.297 38.684 113.322 38.682C113.614 38.66 113.881 38.511 114.053 38.275L123.645 25.147C123.97 24.701 123.874 24.076 123.427 23.75C122.98 23.424 122.355 23.522 122.03 23.968L113.128 36.152L108.958 31.971C108.567 31.579 107.935 31.579 107.544 31.969C107.152 32.359 107.152 32.992 107.542 33.383L112.538 38.391Z" fill="white"/>
</svg>
