<svg width="144" height="120" viewBox="0 0 144 120" fill="none" xmlns="http://www.w3.org/2000/svg">
<path d="M35.012 98.736H42.035C42.15 101.19 44.17 103.156 46.657 103.156C49.218 103.156 51.301 101.077 51.301 98.521C51.301 97.783 51.112 97.095 50.803 96.475L69.375 72.449L73.595 82.337C67.543 85.094 63.319 91.176 63.319 98.236C63.319 107.876 71.178 115.718 80.838 115.718C90.498 115.718 98.358 107.875 98.358 98.236C98.358 88.597 90.499 80.754 80.838 80.754C78.608 80.754 76.482 81.189 74.518 81.949L65.548 60.933H74.786C75.062 60.933 75.286 60.709 75.286 60.433C75.286 60.157 75.062 59.933 74.786 59.933H64.791C64.623 59.933 64.466 60.017 64.374 60.158C64.281 60.298 64.265 60.475 64.331 60.63L67.393 67.806L38.026 78.762L32.925 67.058H41.571C41.847 67.058 42.071 66.834 42.071 66.558C42.071 66.282 41.847 66.058 41.571 66.058H28.153C27.877 66.058 27.653 66.282 27.653 66.558C27.653 66.834 27.877 67.058 28.153 67.058H31.95C31.926 67.16 31.925 67.267 31.97 67.37L37.146 79.247L29.962 85.947C26.785 82.744 22.381 80.754 17.519 80.754C7.859 80.754 0 88.597 0 98.236C0 107.875 7.859 115.718 17.519 115.718C27.01 115.718 34.743 108.143 35.012 98.736ZM80.465 98.432C80.546 98.622 80.731 98.736 80.925 98.736C80.99 98.736 81.057 98.723 81.121 98.696C81.375 98.588 81.493 98.294 81.385 98.04L74.91 82.869C76.753 82.159 78.746 81.754 80.837 81.754C89.946 81.754 97.357 89.148 97.357 98.236C97.357 107.324 89.947 114.718 80.837 114.718C71.729 114.718 64.318 107.324 64.318 98.236C64.318 91.587 68.292 85.859 73.987 83.256L80.465 98.432ZM46.657 102.156C44.648 102.156 43.013 100.525 43.013 98.521C43.013 96.517 44.647 94.886 46.657 94.886C48.667 94.886 50.301 96.517 50.301 98.521C50.301 100.525 48.667 102.156 46.657 102.156ZM67.786 68.726L68.925 71.396L50.223 95.589C49.371 94.558 48.098 93.886 46.657 93.886C45.992 93.886 45.363 94.032 44.79 94.284L38.425 79.68L67.786 68.726ZM37.569 80.218L43.922 94.795C42.973 95.491 42.301 96.531 42.094 97.735H35.012C34.891 93.504 33.261 89.652 30.635 86.685L37.569 80.218ZM34.012 97.736H18.788L29.905 87.367C32.365 90.154 33.892 93.767 34.012 97.736ZM17.519 114.718C8.411 114.718 1 107.324 1 98.236C1 89.148 8.41 81.754 17.519 81.754C22.093 81.754 26.238 83.62 29.232 86.629L17.178 97.871C17.028 98.011 16.978 98.228 17.053 98.42C17.128 98.61 17.313 98.736 17.518 98.736H34.011C33.744 107.592 26.458 114.718 17.519 114.718Z" fill="#11305D"/>
<path d="M126.32 50.498C130.033 50.498 133.053 47.484 133.053 43.779V6.719C133.053 3.014 130.032 0 126.32 0H99.5689C95.8559 0 92.8349 3.014 92.8349 6.719V43.779C92.8349 47.484 95.8559 50.498 99.5689 50.498H112.444V118.999H22.5259C22.2499 118.999 22.0259 119.223 22.0259 119.499C22.0259 119.775 22.2499 119.999 22.5259 119.999H121.504C121.78 119.999 122.004 119.775 122.004 119.499C122.004 119.223 121.78 118.999 121.504 118.999H113.444V50.498H126.32ZM93.8339 43.779V6.719C93.8339 3.566 96.4059 1 99.5679 1H126.319C129.48 1 132.052 3.565 132.052 6.719V43.779C132.052 46.933 129.48 49.498 126.319 49.498H99.5679C96.4069 49.498 93.8339 46.933 93.8339 43.779Z" fill="#11305D"/>
<path d="M111.809 11.131H105.664C105.388 11.131 105.164 11.355 105.164 11.631C105.164 11.638 105.168 11.644 105.168 11.651V36.696C105.168 36.972 105.392 37.196 105.668 37.196C105.944 37.196 106.168 36.972 106.168 36.696V28.922H111.809C116.725 28.922 120.724 24.932 120.724 20.027C120.724 15.122 116.725 11.131 111.809 11.131ZM111.809 27.921H106.168V12.131H111.809C116.173 12.131 119.724 15.673 119.724 20.027C119.724 24.379 116.173 27.921 111.809 27.921Z" fill="#11305D"/>
<path d="M142.823 118.699H127.521C127.245 118.699 127.021 118.923 127.021 119.199C127.021 119.475 127.245 119.699 127.521 119.699H142.823C143.099 119.699 143.323 119.475 143.323 119.199C143.323 118.923 143.1 118.699 142.823 118.699Z" fill="#11305D"/>
</svg>
