<svg width="145" height="121" viewBox="0 0 145 121" fill="none" xmlns="http://www.w3.org/2000/svg">
<path d="M35.987 99.7361H42.087C42.44 102.227 44.567 104.156 47.158 104.156C49.994 104.156 52.302 101.852 52.302 99.0211C52.302 98.3131 52.158 97.6391 51.897 97.0251L69.751 73.9291L73.449 82.5931C67.462 85.5201 63.32 91.6461 63.32 98.7361C63.32 108.652 71.403 116.718 81.339 116.718C91.275 116.718 99.359 108.652 99.359 98.7361C99.359 88.8201 91.275 80.7541 81.339 80.7541C79.216 80.7541 77.186 81.1421 75.293 81.8171L66.806 61.9331H75.287C75.839 61.9331 76.287 61.4851 76.287 60.9331C76.287 60.3811 75.839 59.9331 75.287 59.9331H65.292C64.956 59.9331 64.643 60.1011 64.458 60.3821C64.273 60.6631 64.241 61.0171 64.373 61.3261L67.23 68.0211L38.797 78.6301L34.19 68.0591H42.074C42.626 68.0591 43.074 67.6121 43.074 67.0591C43.074 66.5061 42.626 66.0591 42.074 66.0591H28.653C28.101 66.0591 27.653 66.5061 27.653 67.0591C27.653 67.6121 28.101 68.0591 28.653 68.0591H32.009C32.01 68.0631 32.01 68.0661 32.011 68.0701L37.046 79.6231L30.463 85.7641C27.225 82.6691 22.846 80.7551 18.019 80.7551C8.083 80.7551 0 88.8211 0 98.7371C0 108.653 8.083 116.719 18.019 116.719C27.616 116.718 35.462 109.186 35.987 99.7361ZM81.337 82.7531C90.17 82.7531 97.357 89.9231 97.357 98.7351C97.357 107.547 90.17 114.717 81.337 114.717C72.504 114.717 65.318 107.547 65.318 98.7351C65.318 92.4701 68.959 87.0501 74.232 84.4321L80.504 99.1271C80.666 99.5071 81.036 99.7341 81.424 99.7341C81.556 99.7341 81.689 99.7091 81.817 99.6541C82.325 99.4371 82.561 98.8491 82.344 98.3421L76.075 83.6551C77.727 83.0821 79.492 82.7531 81.337 82.7531ZM30.376 88.5781C32.462 91.0991 33.77 94.2721 33.986 97.7361H20.556L30.376 88.5781ZM47.157 102.156C45.424 102.156 44.013 100.75 44.013 99.0211C44.013 97.2921 45.423 95.8861 47.157 95.8861C48.891 95.8861 50.301 97.2921 50.301 99.0211C50.301 100.75 48.891 102.156 47.157 102.156ZM68.013 69.8611L68.85 71.8231L50.693 95.3111C49.77 94.4331 48.528 93.8861 47.156 93.8861C46.597 93.8861 46.068 93.9981 45.564 94.1631L39.594 80.4641L68.013 69.8611ZM43.814 95.1511C43.036 95.8231 42.463 96.7131 42.197 97.7361H35.987C35.765 93.7471 34.254 90.0971 31.837 87.2151L37.894 81.5661L43.814 95.1511ZM18.019 114.718C9.186 114.718 2 107.548 2 98.7361C2 89.9241 9.186 82.7541 18.019 82.7541C22.269 82.7541 26.127 84.4251 28.998 87.1291L17.337 98.0051C17.037 98.2851 16.938 98.7211 17.089 99.1031C17.239 99.4861 17.609 99.7371 18.019 99.7371H33.987C33.465 108.082 26.513 114.718 18.019 114.718Z" fill="#11305D"/>
<path d="M126.82 51.498C130.808 51.498 134.053 48.259 134.053 44.279V7.219C134.053 3.239 130.808 0 126.82 0H100.069C96.0804 0 92.8354 3.238 92.8354 7.219V44.279C92.8354 48.259 96.0804 51.498 100.069 51.498H112.444V118.999H23.0264C22.4744 118.999 22.0264 119.446 22.0264 119.999C22.0264 120.552 22.4744 120.999 23.0264 120.999H122.004C122.557 120.999 123.004 120.552 123.004 119.999C123.004 119.446 122.557 118.999 122.004 118.999H114.444V51.498H126.82Z" fill="#11305D"/>
<path d="M143.323 119H128.021C127.468 119 127.021 119.447 127.021 120C127.021 120.553 127.468 121 128.021 121H143.323C143.876 121 144.323 120.553 144.323 120C144.323 119.447 143.876 119 143.323 119Z" fill="#11305D"/>
<path d="M112.309 11.1311H106.164C105.611 11.1311 105.164 11.5791 105.164 12.1311C105.164 12.1381 105.168 12.1441 105.168 12.1511V37.1961C105.168 37.7481 105.615 38.1961 106.168 38.1961C106.721 38.1961 107.168 37.7481 107.168 37.1961V29.9221H112.309C117.5 29.9221 121.724 25.7081 121.724 20.5271C121.724 15.3461 117.5 11.1311 112.309 11.1311ZM112.309 27.9211H107.168V13.1311H112.309C116.398 13.1311 119.724 16.4481 119.724 20.5271C119.724 24.6041 116.398 27.9211 112.309 27.9211Z" fill="white"/>
</svg>
