<svg width="143" height="120" viewBox="0 0 143 120" fill="none" xmlns="http://www.w3.org/2000/svg">
<path d="M120.897 119.001H21.9199C21.6439 119.001 21.4199 119.225 21.4199 119.501C21.4199 119.777 21.6439 120.001 21.9199 120.001H120.898C121.174 120.001 121.398 119.777 121.398 119.501C121.398 119.225 121.174 119.001 120.897 119.001Z" fill="#11305D"/>
<path d="M142.217 119.001H126.915C126.639 119.001 126.415 119.225 126.415 119.501C126.415 119.777 126.639 120.001 126.915 120.001H142.217C142.493 120.001 142.717 119.777 142.717 119.501C142.717 119.225 142.494 119.001 142.217 119.001Z" fill="#11305D"/>
<path d="M7.90594 75.557C10.6839 75.557 12.9439 73.296 12.9439 70.518C12.9439 67.741 10.6839 65.481 7.90594 65.481C5.12794 65.481 2.86694 67.741 2.86694 70.518C2.86694 73.296 5.12794 75.557 7.90594 75.557ZM7.90594 66.481C10.1329 66.481 11.9439 68.292 11.9439 70.518C11.9439 72.746 10.1319 74.557 7.90594 74.557C5.67894 74.557 3.86694 72.745 3.86694 70.518C3.86694 68.292 5.67894 66.481 7.90594 66.481Z" fill="#11305D"/>
<path d="M31.2629 105.338V115.218C31.2629 115.494 31.4869 115.718 31.7629 115.718C32.0389 115.718 32.2629 115.494 32.2629 115.218V105.338C32.2629 94.556 41.0839 85.783 51.9259 85.783H59.4899C70.3369 85.783 79.1609 94.555 79.1609 105.338V115.218C79.1609 115.494 79.3849 115.718 79.6609 115.718C79.9369 115.718 80.1609 115.494 80.1609 115.218V105.338C80.1609 95.105 72.5949 86.619 62.7369 85.063V78.255C62.7369 76.115 61.5939 74.24 59.8869 73.189C59.8909 73.165 59.9019 73.142 59.9019 73.117V3.59C59.9019 1.611 58.2839 0 56.2959 0H55.1299C53.1399 0 51.5219 1.61 51.5219 3.59V73.116C51.5219 73.141 51.5329 73.163 51.5369 73.188C49.8299 74.24 48.6879 76.115 48.6879 78.254V85.061C38.8309 86.616 31.2629 95.103 31.2629 105.338ZM52.5219 3.59C52.5219 2.162 53.6919 1 55.1299 1H56.2959C57.7329 1 58.9019 2.162 58.9019 3.59V72.7C58.2309 72.44 57.5039 72.293 56.7409 72.293H54.6789C53.9169 72.293 53.1909 72.44 52.5199 72.699V3.59H52.5219ZM49.6879 78.255C49.6879 75.519 51.9279 73.292 54.6809 73.292H56.7429C59.4969 73.292 61.7389 75.519 61.7389 78.255V84.91C60.9999 84.83 60.2519 84.783 59.4919 84.783H51.9279C51.1709 84.783 50.4249 84.83 49.6889 84.909V78.255H49.6879Z" fill="#11305D"/>
<path d="M40.062 102.386V115.11C40.062 115.386 40.286 115.61 40.562 115.61C40.838 115.61 41.062 115.386 41.062 115.11V102.386C41.062 102.11 40.838 101.886 40.562 101.886C40.286 101.886 40.062 102.11 40.062 102.386Z" fill="#11305D"/>
<path d="M45.113 102.386V115.11C45.113 115.386 45.337 115.61 45.613 115.61C45.889 115.61 46.113 115.386 46.113 115.11V102.386C46.113 102.11 45.889 101.886 45.613 101.886C45.337 101.886 45.113 102.11 45.113 102.386Z" fill="#11305D"/>
<path d="M50.1641 102.386V115.11C50.1641 115.386 50.3881 115.61 50.6641 115.61C50.9401 115.61 51.1641 115.386 51.1641 115.11V102.386C51.1641 102.11 50.9401 101.886 50.6641 101.886C50.3881 101.886 50.1641 102.11 50.1641 102.386Z" fill="#11305D"/>
<path d="M55.2141 102.386V115.11C55.2141 115.386 55.4381 115.61 55.7141 115.61C55.9901 115.61 56.2141 115.386 56.2141 115.11V102.386C56.2141 102.11 55.9901 101.886 55.7141 101.886C55.4381 101.886 55.2141 102.11 55.2141 102.386Z" fill="#11305D"/>
<path d="M60.2639 102.386V115.11C60.2639 115.386 60.4879 115.61 60.7639 115.61C61.0399 115.61 61.2639 115.386 61.2639 115.11V102.386C61.2639 102.11 61.0399 101.886 60.7639 101.886C60.4879 101.886 60.2639 102.11 60.2639 102.386Z" fill="#11305D"/>
<path d="M65.314 102.386V115.11C65.314 115.386 65.538 115.61 65.814 115.61C66.09 115.61 66.314 115.386 66.314 115.11V102.386C66.314 102.11 66.09 101.886 65.814 101.886C65.538 101.886 65.314 102.11 65.314 102.386Z" fill="#11305D"/>
<path d="M70.363 102.386V115.11C70.363 115.386 70.587 115.61 70.863 115.61C71.139 115.61 71.363 115.386 71.363 115.11V102.386C71.363 102.11 71.139 101.886 70.863 101.886C70.587 101.886 70.363 102.11 70.363 102.386Z" fill="#11305D"/>
<path d="M27.299 108.86C27.547 108.739 27.65 108.44 27.529 108.192C27.409 107.944 27.112 107.841 26.861 107.962C25.842 108.458 24.747 108.71 23.606 108.71C21.36 108.71 19.258 107.706 17.838 105.955C17.649 105.723 17.252 105.722 17.061 105.956C15.643 107.706 13.54 108.71 11.293 108.71C7.198 108.71 3.867 105.38 3.867 101.286C3.867 99.165 4.784 97.138 6.385 95.725C6.52 95.606 6.58 95.422 6.543 95.246C6.505 95.07 6.376 94.928 6.203 94.873C3.092 93.898 1.001 91.051 1.001 87.788C1.001 83.693 4.332 80.362 8.426 80.362C10.301 80.362 12.093 81.07 13.475 82.355C13.603 82.473 13.782 82.517 13.951 82.47C14.119 82.422 14.25 82.291 14.297 82.122C15.188 78.925 18.126 76.691 21.443 76.691C24.223 76.691 26.748 78.223 28.045 80.71C28.171 80.949 28.465 81.046 28.708 80.926C29.851 80.364 31.081 80.079 32.363 80.079C35.153 80.079 37.738 81.469 39.28 83.798C39.432 84.027 39.741 84.088 39.973 83.939C40.203 83.787 40.266 83.476 40.114 83.246C38.386 80.638 35.489 79.08 32.363 79.08C31.087 79.08 29.857 79.332 28.699 79.83C27.184 77.267 24.444 75.692 21.443 75.692C17.936 75.692 14.801 77.891 13.572 81.127C12.099 79.984 10.298 79.362 8.425 79.362C3.779 79.362 0 83.142 0 87.788C0 91.215 2.033 94.237 5.135 95.546C3.684 97.101 2.866 99.151 2.866 101.286C2.866 105.931 6.646 109.71 11.292 109.71C13.644 109.71 15.856 108.741 17.448 107.032C19.041 108.741 21.253 109.71 23.604 109.71C24.9 109.71 26.143 109.423 27.299 108.86Z" fill="#11305D"/>
</svg>
