<svg width="144" height="121" viewBox="0 0 144 121" fill="none" xmlns="http://www.w3.org/2000/svg">
<path d="M121.396 119.001H22.4189C21.8669 119.001 21.4189 119.448 21.4189 120.001C21.4189 120.554 21.8669 121.001 22.4189 121.001H121.397C121.95 121.001 122.397 120.554 122.397 120.001C122.397 119.448 121.949 119.001 121.396 119.001Z" fill="#11305D"/>
<path d="M142.716 119.001H127.414C126.861 119.001 126.414 119.448 126.414 120.001C126.414 120.554 126.861 121.001 127.414 121.001H142.716C143.269 121.001 143.716 120.554 143.716 120.001C143.716 119.448 143.269 119.001 142.716 119.001Z" fill="#11305D"/>
<path d="M8.40496 76.557C11.459 76.557 13.943 74.073 13.943 71.018C13.943 67.965 11.459 65.481 8.40496 65.481C5.35096 65.481 2.86597 67.965 2.86597 71.018C2.86597 74.073 5.35096 76.557 8.40496 76.557Z" fill="#11305D"/>
<path d="M31.262 105.838V115.718C31.262 116.271 31.71 116.718 32.262 116.718C32.814 116.718 33.262 116.271 33.262 115.718V105.838C33.262 95.331 41.859 86.783 52.425 86.783H59.989C70.56 86.783 79.16 95.331 79.16 105.838V115.718C79.16 116.271 79.607 116.718 80.16 116.718C80.713 116.718 81.16 116.271 81.16 115.718V105.838C81.16 95.502 73.626 86.9 63.736 85.134V78.755C63.736 76.542 62.611 74.586 60.901 73.421V4.09C60.901 1.835 59.059 0 56.795 0H55.629C53.364 0 51.521 1.834 51.521 4.09V73.421C49.812 74.586 48.687 76.542 48.687 78.755V85.132C38.798 86.897 31.262 95.5 31.262 105.838ZM53.521 4.09C53.521 2.938 54.467 2 55.629 2H56.795C57.957 2 58.901 2.938 58.901 4.09V72.514C58.37 72.374 57.816 72.292 57.241 72.292H55.179C54.605 72.292 54.051 72.374 53.52 72.514V4.09H53.521ZM50.687 78.755C50.687 76.294 52.703 74.292 55.18 74.292H57.242C59.721 74.292 61.737 76.294 61.737 78.755V84.871C61.159 84.824 60.58 84.783 59.99 84.783H52.426C51.839 84.783 51.262 84.824 50.688 84.871V78.755H50.687Z" fill="#11305D"/>
<path d="M40.0601 102.886V115.61C40.0601 116.163 40.5081 116.61 41.0601 116.61C41.6121 116.61 42.0601 116.163 42.0601 115.61V102.886C42.0601 102.333 41.6121 101.886 41.0601 101.886C40.5081 101.886 40.0601 102.334 40.0601 102.886Z" fill="#11305D"/>
<path d="M45.1121 102.886V115.61C45.1121 116.163 45.5601 116.61 46.1121 116.61C46.6641 116.61 47.1121 116.163 47.1121 115.61V102.886C47.1121 102.333 46.6641 101.886 46.1121 101.886C45.5601 101.886 45.1121 102.334 45.1121 102.886Z" fill="#11305D"/>
<path d="M50.1631 102.886V115.61C50.1631 116.163 50.6111 116.61 51.1631 116.61C51.7151 116.61 52.1631 116.163 52.1631 115.61V102.886C52.1631 102.333 51.7151 101.886 51.1631 101.886C50.6111 101.886 50.1631 102.334 50.1631 102.886Z" fill="#11305D"/>
<path d="M55.2129 102.886V115.61C55.2129 116.163 55.6609 116.61 56.2129 116.61C56.7649 116.61 57.2129 116.163 57.2129 115.61V102.886C57.2129 102.333 56.7649 101.886 56.2129 101.886C55.6609 101.886 55.2129 102.334 55.2129 102.886Z" fill="#11305D"/>
<path d="M60.262 102.886V115.61C60.262 116.163 60.71 116.61 61.262 116.61C61.814 116.61 62.262 116.163 62.262 115.61V102.886C62.262 102.333 61.814 101.886 61.262 101.886C60.71 101.886 60.262 102.334 60.262 102.886Z" fill="#11305D"/>
<path d="M65.312 102.886V115.61C65.312 116.163 65.759 116.61 66.312 116.61C66.865 116.61 67.312 116.163 67.312 115.61V102.886C67.312 102.333 66.865 101.886 66.312 101.886C65.759 101.886 65.312 102.334 65.312 102.886Z" fill="#11305D"/>
<path d="M70.3621 102.886V115.61C70.3621 116.163 70.8091 116.61 71.3621 116.61C71.9151 116.61 72.3621 116.163 72.3621 115.61V102.886C72.3621 102.333 71.9151 101.886 71.3621 101.886C70.8091 101.886 70.3621 102.334 70.3621 102.886Z" fill="#11305D"/>
<path d="M27.905 109.863C28.316 109.736 28.609 109.353 28.609 108.908V105.08C28.609 96.666 33.231 88.936 40.672 84.909C40.995 84.734 41.196 84.389 41.196 84.022C41.196 83.826 41.138 83.633 41.03 83.47C39.21 80.721 36.156 79.079 32.862 79.079C31.663 79.079 30.503 79.29 29.4 79.708C27.757 77.21 24.976 75.691 21.942 75.691C18.445 75.691 15.298 77.754 13.855 80.854C12.4 79.884 10.693 79.361 8.925 79.361C4.004 79.361 0 83.365 0 88.287C0 91.685 1.887 94.709 4.825 96.219C3.567 97.79 2.866 99.751 2.866 101.785C2.866 106.706 6.87 110.709 11.792 110.709C14.108 110.709 16.297 109.822 17.948 108.242C19.6 109.822 21.788 110.709 24.104 110.709C25.434 110.71 26.712 110.424 27.905 109.863Z" fill="#11305D"/>
</svg>
