<?xml version="1.0" encoding="utf-8"?>
<!-- Generator: Adobe Illustrator 15.0.2, SVG Export Plug-In . SVG Version: 6.00 Build 0)  -->
<!DOCTYPE svg PUBLIC "-//W3C//DTD SVG 1.1//EN" "http://www.w3.org/Graphics/SVG/1.1/DTD/svg11.dtd">
<svg version="1.1" xmlns="http://www.w3.org/2000/svg" xmlns:xlink="http://www.w3.org/1999/xlink" x="0px" y="0px" width="200px"
	 height="200px" viewBox="0 0 200 200" enable-background="new 0 0 200 200" xml:space="preserve">
<g id="Layer_1">
</g>
<g id="Layer_2">
	<g>
		<path d="M160.033,148.6H61.055c-0.275,0-0.5,0.225-0.5,0.5s0.225,0.5,0.5,0.5h98.978c0.275,0,0.5-0.225,0.5-0.5
			S160.309,148.6,160.033,148.6z" fill="#11305D" />
		<path d="M181.352,148.6h-15.301c-0.277,0-0.5,0.225-0.5,0.5s0.223,0.5,0.5,0.5h15.301c0.277,0,0.5-0.225,0.5-0.5
			S181.629,148.6,181.352,148.6z" fill="#11305D" />
		<path d="M47.042,105.156c2.778,0,5.038-2.26,5.038-5.039c0-2.776-2.26-5.037-5.038-5.037c-2.777,0-5.039,2.261-5.039,5.037
			C42.002,102.896,44.264,105.156,47.042,105.156z" fill="#11305D" />
		<path d="M70.399,134.938v9.881c0,0.275,0.224,0.5,0.5,0.5c0.275,0,0.5-0.225,0.5-0.5v-9.881c0-10.781,8.82-19.555,19.662-19.555
			h7.564c10.847,0,19.671,8.771,19.671,19.555v9.881c0,0.275,0.223,0.5,0.5,0.5c0.275,0,0.5-0.225,0.5-0.5v-9.881
			c0-10.232-7.566-18.719-17.424-20.275v-6.809c0-2.139-1.145-4.014-2.851-5.066c0.005-0.023,0.016-0.045,0.016-0.07V33.19
			c0-1.979-1.618-3.59-3.605-3.59h-1.166c-1.989,0-3.608,1.61-3.608,3.59v69.527c0,0.023,0.011,0.047,0.015,0.07
			c-1.705,1.053-2.849,2.928-2.849,5.066v6.807C77.967,116.215,70.399,124.703,70.399,134.938z M91.658,33.19
			c0-1.428,1.17-2.59,2.608-2.59h1.166c1.438,0,2.605,1.162,2.605,2.59v69.107c-0.671-0.26-1.398-0.406-2.16-0.406h-2.062
			c-0.762,0-1.487,0.146-2.158,0.406L91.658,33.19L91.658,33.19z M88.824,107.854c0-2.736,2.239-4.963,4.993-4.963h2.062
			c2.755,0,4.995,2.227,4.995,4.963v6.656c-0.738-0.08-1.486-0.127-2.247-0.127h-7.563c-0.758,0-1.502,0.047-2.238,0.127
			L88.824,107.854L88.824,107.854z" fill="#11305D" />
		<path d="M79.197,131.986v12.723c0,0.277,0.224,0.5,0.5,0.5s0.5-0.223,0.5-0.5v-12.723c0-0.277-0.224-0.5-0.5-0.5
			S79.197,131.709,79.197,131.986z" fill="#11305D" />
		<path d="M84.249,131.986v12.723c0,0.277,0.225,0.5,0.5,0.5s0.5-0.223,0.5-0.5v-12.723c0-0.277-0.225-0.5-0.5-0.5
			S84.249,131.709,84.249,131.986z" fill="#11305D" />
		<path d="M89.299,131.986v12.723c0,0.277,0.225,0.5,0.5,0.5c0.276,0,0.5-0.223,0.5-0.5v-12.723c0-0.277-0.224-0.5-0.5-0.5
			C89.524,131.486,89.299,131.709,89.299,131.986z" fill="#11305D" />
		<path d="M94.348,131.986v12.723c0,0.277,0.225,0.5,0.5,0.5c0.276,0,0.5-0.223,0.5-0.5v-12.723c0-0.277-0.224-0.5-0.5-0.5
			C94.573,131.486,94.348,131.709,94.348,131.986z" fill="#11305D" />
		<path d="M99.399,131.986v12.723c0,0.277,0.224,0.5,0.5,0.5c0.275,0,0.5-0.223,0.5-0.5v-12.723c0-0.277-0.225-0.5-0.5-0.5
			C99.623,131.486,99.399,131.709,99.399,131.986z" fill="#11305D" />
		<path d="M104.449,131.986v12.723c0,0.277,0.223,0.5,0.5,0.5c0.275,0,0.5-0.223,0.5-0.5v-12.723c0-0.277-0.225-0.5-0.5-0.5
			C104.672,131.486,104.449,131.709,104.449,131.986z" fill="#11305D" />
		<path d="M109.498,131.986v12.723c0,0.277,0.225,0.5,0.5,0.5s0.5-0.223,0.5-0.5v-12.723c0-0.277-0.225-0.5-0.5-0.5
			S109.498,131.709,109.498,131.986z" fill="#11305D" />
		<path d="M66.516,138.41c0.144-0.092,0.229-0.25,0.229-0.42v-3.811c0-8.598,4.722-16.494,12.323-20.609
			c0.123-0.066,0.215-0.189,0.248-0.326c0.035-0.137,0.01-0.279-0.067-0.396c-1.728-2.609-4.625-4.168-7.751-4.168
			c-1.275,0-2.506,0.252-3.664,0.75c-1.516-2.562-4.255-4.139-7.256-4.139c-3.508,0-6.643,2.201-7.871,5.438
			c-1.473-1.145-3.273-1.766-5.146-1.766c-4.646,0-8.424,3.779-8.424,8.426c0,3.426,2.032,6.447,5.135,7.758
			c-1.45,1.555-2.27,3.604-2.27,5.74c0,4.645,3.78,8.424,8.426,8.424c2.353,0,4.563-0.969,6.156-2.678
			c1.594,1.709,3.807,2.678,6.156,2.678C64.036,139.309,65.278,139.023,66.516,138.41z" fill="#11305D" />
	</g>
</g>
</svg>
