<svg width="153" height="121" viewBox="0 0 153 121" fill="none" xmlns="http://www.w3.org/2000/svg">
<path d="M130.484 119.06H31.506C31.23 119.06 31.006 119.284 31.006 119.56C31.006 119.836 31.23 120.06 31.506 120.06H130.484C130.76 120.06 130.984 119.836 130.984 119.56C130.984 119.284 130.76 119.06 130.484 119.06Z" fill="#11305D"/>
<path d="M151.804 119.06H136.502C136.226 119.06 136.002 119.284 136.002 119.56C136.002 119.836 136.226 120.06 136.502 120.06H151.804C152.08 120.06 152.304 119.836 152.304 119.56C152.304 119.284 152.08 119.06 151.804 119.06Z" fill="#11305D"/>
<path d="M80.116 52.497V31.424C80.116 28.781 77.962 26.631 75.313 26.631H24.07C21.424 26.631 19.27 28.781 19.27 31.424V52.497C19.27 55.139 21.423 57.289 24.07 57.289H75.313C77.961 57.289 80.116 55.14 80.116 52.497ZM20.27 52.497V31.424C20.27 29.333 21.975 27.631 24.07 27.631H75.313C77.41 27.631 79.116 29.333 79.116 31.424V52.497C79.116 54.588 77.41 56.289 75.313 56.289H24.07C21.974 56.289 20.27 54.588 20.27 52.497Z" fill="#11305D"/>
<path d="M17.149 95.785H29.0201C29.2961 95.785 29.5201 95.561 29.5201 95.285C29.5201 95.009 29.2961 94.785 29.0201 94.785H17.149C16.873 94.785 16.649 95.009 16.649 95.285C16.649 95.561 16.872 95.785 17.149 95.785Z" fill="#11305D"/>
<path d="M70.364 95.785H82.234C82.51 95.785 82.734 95.561 82.734 95.285C82.734 95.009 82.51 94.785 82.234 94.785H70.364C70.088 94.785 69.864 95.009 69.864 95.285C69.864 95.561 70.087 95.785 70.364 95.785Z" fill="#11305D"/>
<path d="M73.253 76.237V70.48C73.253 70.204 73.029 69.98 72.753 69.98H26.632C26.356 69.98 26.132 70.204 26.132 70.48V76.237C26.132 76.513 26.356 76.737 26.632 76.737H72.753C73.03 76.737 73.253 76.513 73.253 76.237ZM72.253 75.737H27.132V70.98H72.253V75.737Z" fill="#11305D"/>
<path d="M32.979 115.278V107.224H66.404V115.278C66.404 115.554 66.628 115.778 66.904 115.778H83.848C84.124 115.778 84.348 115.554 84.348 115.278V107.142C87.752 106.645 90.377 103.72 90.377 100.187V82.89V58.453C90.468 58.547 90.594 58.606 90.735 58.606H92.329C96.217 58.606 99.38 55.45 99.38 51.57V38.769C99.38 34.889 96.217 31.732 92.329 31.732H90.735C90.593 31.732 90.467 31.792 90.377 31.885V24.334V7.037C90.377 3.157 87.214 0 83.326 0H16.056C12.168 0 9.004 3.157 9.004 7.037V24.334V31.885C8.913 31.791 8.787 31.732 8.646 31.732H7.051C3.163 31.732 0 34.889 0 38.769V51.571C0 55.451 3.163 58.607 7.051 58.607H8.647C8.788 58.607 8.915 58.547 9.005 58.454V82.891V100.188C9.005 103.72 11.629 106.644 15.032 107.142V115.279C15.032 115.555 15.256 115.779 15.532 115.779H32.478C32.755 115.778 32.979 115.554 32.979 115.278ZM83.348 107.224V114.778H67.404V107.224H83.327H83.348ZM10.005 82.89V24.334C10.005 21.005 12.72 18.297 16.057 18.297H83.327C86.663 18.297 89.378 21.005 89.378 24.334V82.89V85.25H65.932C65.8 85.25 65.673 85.303 65.579 85.396L57.879 93.081H41.503L33.805 85.396C33.712 85.302 33.584 85.25 33.452 85.25H10.005V82.89ZM90.736 32.732H92.33C95.666 32.732 98.381 35.44 98.381 38.769V51.571C98.381 54.899 95.666 57.607 92.33 57.607H90.736C90.594 57.607 90.468 57.667 90.378 57.76V32.578C90.468 32.672 90.594 32.732 90.736 32.732ZM10.005 7.037C10.005 3.708 12.72 1 16.057 1H83.327C86.663 1 89.378 3.708 89.378 7.037V20.739C88.147 18.681 85.899 17.296 83.327 17.296H16.057C13.485 17.296 11.237 18.681 10.005 20.739V7.037ZM8.647 57.607H7.051C3.715 57.607 1 54.899 1 51.571V38.769C1 35.44 3.714 32.732 7.051 32.732H8.647C8.788 32.732 8.915 32.672 9.005 32.579V57.761C8.914 57.666 8.788 57.607 8.647 57.607ZM10.005 100.187V86.25H33.245L40.943 93.935C41.036 94.029 41.164 94.081 41.296 94.081H58.086C58.218 94.081 58.345 94.028 58.439 93.935L66.139 86.25H89.377V100.187C89.377 103.516 86.662 106.224 83.326 106.224H66.904H32.479H16.057C12.72 106.224 10.005 103.516 10.005 100.187ZM31.979 114.778H16.033V107.224H16.057H31.979V114.778Z" fill="#11305D"/>
<path d="M98.88 92.136C98.604 92.136 98.38 92.36 98.38 92.636V115.278C98.38 115.554 98.604 115.778 98.88 115.778H128.353C128.629 115.778 128.853 115.554 128.853 115.278V92.636C128.853 92.36 128.629 92.136 128.353 92.136H98.88ZM99.38 93.136H117.311V114.778H99.38V93.136ZM127.853 114.778H118.311V93.136H127.853V114.778Z" fill="#11305D"/>
<path d="M109.931 88.373H139.401C139.677 88.373 139.901 88.149 139.901 87.873V65.229C139.901 64.953 139.677 64.729 139.401 64.729H109.931C109.655 64.729 109.431 64.953 109.431 65.229V87.873C109.431 88.15 109.655 88.373 109.931 88.373ZM138.901 87.373H132.056V65.729H138.901V87.373ZM110.431 65.73H131.056V87.374H110.431V65.73Z" fill="#11305D"/>
<path d="M148.228 115.278V92.636C148.228 92.36 148.004 92.136 147.728 92.136H133.241C132.965 92.136 132.741 92.36 132.741 92.636V115.278C132.741 115.554 132.965 115.778 133.241 115.778H147.728C148.004 115.778 148.228 115.554 148.228 115.278ZM147.228 114.778H133.741V93.136H147.228V114.778Z" fill="#11305D"/>
</svg>
