<svg width="154" height="122" viewBox="0 0 154 122" fill="none" xmlns="http://www.w3.org/2000/svg">
<path d="M130.984 119.06H32.0061C31.4541 119.06 31.0061 119.507 31.0061 120.06C31.0061 120.613 31.4541 121.06 32.0061 121.06H130.984C131.537 121.06 131.984 120.613 131.984 120.06C131.984 119.507 131.536 119.06 130.984 119.06Z" fill="#11305D"/>
<path d="M152.304 119.06H137.002C136.449 119.06 136.002 119.507 136.002 120.06C136.002 120.613 136.449 121.06 137.002 121.06H152.304C152.857 121.06 153.304 120.613 153.304 120.06C153.304 119.507 152.857 119.06 152.304 119.06Z" fill="#11305D"/>
<path d="M81.116 52.997V31.924C81.116 29.006 78.737 26.631 75.813 26.631H24.57C21.648 26.631 19.27 29.006 19.27 31.924V52.997C19.27 55.915 21.647 58.289 24.57 58.289H75.813C78.737 58.289 81.116 55.915 81.116 52.997ZM21.27 52.997V31.924C21.27 30.108 22.75 28.631 24.57 28.631H75.813C77.634 28.631 79.116 30.108 79.116 31.924V52.997C79.116 54.812 77.635 56.289 75.813 56.289H24.57C22.75 56.289 21.27 54.813 21.27 52.997Z" fill="#11305D"/>
<path d="M17.6489 96.785H29.5199C30.0719 96.785 30.5199 96.338 30.5199 95.785C30.5199 95.232 30.0719 94.785 29.5199 94.785H17.6489C17.0969 94.785 16.6489 95.232 16.6489 95.785C16.6489 96.338 17.0969 96.785 17.6489 96.785Z" fill="#11305D"/>
<path d="M70.864 96.785H82.734C83.287 96.785 83.734 96.338 83.734 95.785C83.734 95.232 83.287 94.785 82.734 94.785H70.864C70.312 94.785 69.864 95.232 69.864 95.785C69.864 96.338 70.311 96.785 70.864 96.785Z" fill="#11305D"/>
<path d="M74.2531 76.737V70.98C74.2531 70.427 73.8051 69.98 73.2531 69.98H27.1321C26.5801 69.98 26.1321 70.427 26.1321 70.98V76.737C26.1321 77.29 26.5801 77.737 27.1321 77.737H73.2531C73.8061 77.737 74.2531 77.289 74.2531 76.737ZM72.2531 75.737H28.1321V71.98H72.2531V75.737Z" fill="#11305D"/>
<path d="M33.979 115.778V108.224H66.404V115.778C66.404 116.331 66.852 116.778 67.404 116.778H84.348C84.901 116.778 85.348 116.331 85.348 115.778V108.07C88.785 107.366 91.377 104.323 91.377 100.687V83.39V59.607H92.829C96.992 59.607 100.38 56.226 100.38 52.071V39.269C100.38 35.113 96.992 31.732 92.829 31.732H91.377V24.834V7.537C91.377 3.381 87.989 0 83.826 0H16.556C12.392 0 9.004 3.381 9.004 7.537V24.834V31.732H7.551C3.387 31.732 0 35.113 0 39.269V52.071C0 56.226 3.387 59.607 7.551 59.607H9.005V83.39V100.687C9.005 104.322 11.597 107.364 15.032 108.07V115.778C15.032 116.331 15.48 116.778 16.032 116.778H32.978C33.531 116.778 33.979 116.33 33.979 115.778ZM83.348 114.778H68.404V108.224H83.348V114.778ZM11.005 83.39V24.834C11.005 21.781 13.496 19.297 16.557 19.297H83.827C86.888 19.297 89.378 21.781 89.378 24.834V83.39V85.25H66.432C66.167 85.25 65.913 85.355 65.725 85.542L58.172 93.081H42.21L34.659 85.542C34.471 85.355 34.218 85.25 33.952 85.25H11.005V83.39ZM92.829 33.732C95.89 33.732 98.38 36.216 98.38 39.269V52.071C98.38 55.124 95.89 57.607 92.829 57.607H91.377V33.732H92.829ZM11.005 7.537C11.005 4.484 13.496 2 16.557 2H83.827C86.888 2 89.378 4.484 89.378 7.537V19.742C87.997 18.243 86.024 17.297 83.827 17.297H16.557C14.361 17.297 12.387 18.244 11.005 19.742V7.537ZM7.551 57.607C4.49 57.607 2 55.124 2 52.071V39.269C2 36.216 4.49 33.732 7.551 33.732H9.005V57.607H7.551ZM11.005 100.687V87.25H33.539L41.09 94.789C41.278 94.976 41.531 95.081 41.797 95.081H58.587C58.852 95.081 59.106 94.976 59.294 94.789L66.847 87.25H89.379V100.687C89.379 103.74 86.889 106.224 83.828 106.224H67.404H32.979H16.557C13.496 106.224 11.005 103.74 11.005 100.687ZM31.979 114.778H17.033V108.224H31.979V114.778Z" fill="#11305D"/>
<path d="M99.3799 92.136C98.8269 92.136 98.3799 92.583 98.3799 93.136V115.778C98.3799 116.331 98.8269 116.778 99.3799 116.778H128.853C129.406 116.778 129.853 116.331 129.853 115.778V93.136C129.853 92.583 129.406 92.136 128.853 92.136H99.3799ZM100.38 94.136H117.311V114.778H100.38V94.136Z" fill="#11305D"/>
<path d="M110.431 89.373H139.901C140.454 89.373 140.901 88.926 140.901 88.373V65.729C140.901 65.177 140.454 64.729 139.901 64.729H110.431C109.878 64.729 109.431 65.177 109.431 65.729V88.373C109.431 88.926 109.878 89.373 110.431 89.373ZM111.431 66.73H131.056V87.374H111.431V66.73Z" fill="#11305D"/>
<path d="M149.228 115.778V93.136C149.228 92.583 148.781 92.136 148.228 92.136H133.741C133.188 92.136 132.741 92.583 132.741 93.136V115.778C132.741 116.331 133.188 116.778 133.741 116.778H148.228C148.781 116.778 149.228 116.33 149.228 115.778Z" fill="#11305D"/>
</svg>
