<svg width="78" height="32" viewBox="0 0 78 32" fill="none" xmlns="http://www.w3.org/2000/svg">
<circle cx="61.2683" cy="16" r="15.5" stroke="white"/>
<path d="M65.0438 7.80493C63.7477 7.80493 59.5535 7.80493 58.2574 7.80493C55.395 7.80493 53.0732 10.1229 53.0732 12.9846C53.0732 14.289 53.0732 18.4901 53.0732 19.7953C53.0732 22.6577 55.395 24.9757 58.2574 24.9757C59.5535 24.9757 63.7477 24.9757 65.0438 24.9757C67.907 24.9757 70.2303 22.6577 70.2303 19.7953C70.2303 18.4901 70.2303 14.289 70.2303 12.9846C70.2295 10.1229 67.9062 7.80493 65.0438 7.80493ZM68.5215 19.8219C68.5215 21.7188 66.9818 23.2577 65.0872 23.2577H58.2156C56.3187 23.2577 54.7782 21.7188 54.7782 19.8219V12.9572C54.7782 11.0633 56.3179 9.52362 58.2156 9.52362H65.0872C66.981 9.52362 68.5215 11.0626 68.5215 12.9572V19.8219Z" fill="white"/>
<path d="M66.1439 12.9082C66.6793 12.9082 67.1133 12.4742 67.1133 11.9389C67.1133 11.4035 66.6793 10.9695 66.1439 10.9695C65.6086 10.9695 65.1746 11.4035 65.1746 11.9389C65.1746 12.4742 65.6086 12.9082 66.1439 12.9082Z" fill="white"/>
<path d="M61.6507 12.0221C59.2368 12.0221 57.2791 13.9761 57.2791 16.3885C57.2791 18.8069 59.2368 20.7609 61.6507 20.7609C64.0654 20.7609 66.024 18.8069 66.024 16.3885C66.024 13.9761 64.0646 12.0221 61.6507 12.0221ZM61.6507 19.0407C60.1887 19.0407 59 17.8543 59 16.3892C59 14.9249 60.1894 13.7431 61.6507 13.7431C63.1166 13.7431 64.3015 14.9249 64.3015 16.3892C64.3015 17.8543 63.1158 19.0407 61.6507 19.0407Z" fill="white"/>
<circle cx="16" cy="16" r="15.5" stroke="white"/>
<path d="M13.7435 15.1813H12.4878V12.6905H13.7435V12.0128C13.7435 10.837 14.0428 9.97961 14.6002 9.4222C15.1583 8.86479 15.9754 8.58533 17.0514 8.58533C18.0078 8.58533 18.6459 8.70412 19.2033 8.88459V11.3952C18.7647 11.2361 18.3467 11.1363 17.8289 11.1363C17.1313 11.1363 16.7331 11.495 16.7331 12.2922V12.7111H19.1843V15.1813H16.7727V23.2721H13.7435V15.1813Z" fill="white"/>
</svg>
