<svg width="43" height="84" viewBox="0 0 43 84" fill="none" xmlns="http://www.w3.org/2000/svg">
<path d="M23.9784 71.9328V6.14803C26.6746 6.71163 29.2469 7.34132 31.1276 7.90493C36.518 9.59781 37.0858 10.4773 37.0858 17.0609V60.2726C37.0858 66.8563 36.5201 67.6098 29.8724 69.9303C27.6139 70.6818 25.6692 71.3712 23.9784 71.9328ZM5.72626 60.3325V26.2809C5.72626 19.6952 6.29191 18.9416 12.9395 16.6191C15.196 15.8697 17.1408 15.2401 18.7717 14.6785V71.9328C17.0768 71.3712 15.1341 70.7437 12.9395 69.9901C6.29191 67.6717 5.72626 66.9161 5.72626 60.3325ZM0.20789 59.7668C0.20789 70.9935 0.96141 71.5571 12.9395 75.3826L18.7717 77.2613V83.5951H23.9763V77.2613L29.8064 75.3826C41.7866 71.555 42.5381 70.9935 42.5381 59.7668V17.7463C42.5381 6.52172 41.9104 5.52044 31.875 2.69829C28.5532 1.75483 22.2173 0.439735 18.7697 0V9.34385L12.9375 11.2246C0.959331 15.0501 0.205811 15.6137 0.205811 26.8404V59.7668" fill="#11305D"/>
</svg>
